<mxfile host="app.diagrams.net" modified="2024-06-24T23:09:27.028Z" agent="Mozilla/5.0 (Macintosh; Intel Mac OS X 10.15; rv:127.0) Gecko/20100101 Firefox/127.0" version="24.6.2" etag="0jdBe3YaK6-esprySihW" type="github">
  <diagram name="PÃ¡gina-1" id="HE-Ip_R9tHt-L-R6t0IW">
    <mxGraphModel>
      <root>
        <mxCell id="0" />
        <mxCell id="1" parent="0" />
      </root>
    </mxGraphModel>
  </diagram>
</mxfile>
